# xmcd
#
# Track frame offsets:
#	150
#	9432
#	16081
#	26603
#	36012
#	50897
#	64488
#	85018
#
# Disc length: 1372 seconds
#
# Revision: 0
# Processed by: cddbd v1.5.1PL2 Copyright (c) Steve Scherf et al.
# Submitted via: audiograbber 1.83.01
#
DISCID=5c055a08
DTITLE=Little Evelyn - Uniquely Me
DYEAR=2005
DGENRE=Country
TTITLE0=Yankee Girl
TTITLE1=Tell Her Your Mine
TTITLE2=Walking Miracle
TTITLE3=Then He Told Me
TTITLE4=Things Are Different Today
TTITLE5=Grave Clothes
TTITLE6=Remember When
TTITLE7=Daddy's Hands
EXTD=
EXTT0=
EXTT1=
EXTT2=
EXTT3=
EXTT4=
EXTT5=
EXTT6=
EXTT7=
PLAYORDER=
